<svg xmlns="http://www.w3.org/2000/svg" xmlns:xlink="http://www.w3.org/1999/xlink" width="1000" zoomAndPan="magnify" viewBox="0 0 750 749.999995" height="1000" preserveAspectRatio="xMidYMid meet" version="1.0"><defs><clipPath id="ee0cad4f48"><path d="M 124.449219 136.976562 L 625.449219 136.976562 L 625.449219 613.226562 L 124.449219 613.226562 Z M 124.449219 136.976562 " clip-rule="nonzero"/></clipPath></defs><rect x="-75" width="900" fill="#ffffff" y="-74.999999" height="899.999994" fill-opacity="1"/><rect x="-75" width="900" fill="#67e821" y="-74.999999" height="899.999994" fill-opacity="1"/><g clip-path="url(#ee0cad4f48)"><path fill="#000000" d="M 486.40625 308.765625 C 523.207031 293.296875 566.542969 293.875 605.316406 310.34375 L 625.253906 318.820312 L 619.464844 330.847656 C 590.085938 391.886719 526.554688 427.261719 461.367188 418.824219 C 451.019531 417.488281 440.886719 415.203125 430.964844 411.972656 L 402.023438 402.570312 L 481.625 375.296875 C 482.078125 375.140625 482.511719 374.941406 482.925781 374.703125 C 483.339844 374.460938 483.726562 374.183594 484.085938 373.863281 C 484.445312 373.546875 484.769531 373.199219 485.0625 372.816406 C 485.351562 372.4375 485.601562 372.03125 485.8125 371.601562 C 486.023438 371.167969 486.191406 370.722656 486.3125 370.257812 C 486.433594 369.796875 486.511719 369.324219 486.542969 368.847656 C 486.570312 368.367188 486.554688 367.890625 486.488281 367.417969 C 486.425781 366.941406 486.316406 366.476562 486.160156 366.023438 C 486.007812 365.570312 485.808594 365.136719 485.566406 364.722656 C 485.328125 364.308594 485.046875 363.921875 484.730469 363.5625 C 484.414062 363.203125 484.066406 362.878906 483.683594 362.585938 C 483.304688 362.296875 482.898438 362.046875 482.46875 361.835938 C 482.039062 361.625 481.589844 361.457031 481.128906 361.335938 C 480.664062 361.210938 480.195312 361.132812 479.714844 361.105469 C 479.238281 361.074219 478.761719 361.089844 478.285156 361.152344 C 477.8125 361.21875 477.347656 361.328125 476.894531 361.480469 L 398.613281 388.304688 L 399.3125 387.335938 C 399.3125 387.335938 415.648438 364.855469 415.703125 364.777344 C 420.183594 358.613281 425.066406 352.78125 430.34375 347.28125 C 435.621094 341.785156 441.246094 336.667969 447.222656 331.933594 C 453.195312 327.203125 459.464844 322.894531 466.027344 319.015625 C 472.585938 315.136719 479.382812 311.71875 486.40625 308.765625 Z M 439.246094 498.003906 C 438.089844 498.003906 436.996094 497.746094 435.964844 497.226562 C 434.933594 496.710938 434.070312 495.984375 433.382812 495.058594 L 384.804688 429.59375 L 384.804688 459.785156 C 384.804688 462.378906 384.867188 464.980469 384.988281 467.558594 C 388.460938 542.839844 449.265625 605.234375 526.421875 612.6875 L 529.671875 612.996094 L 531.074219 604.367188 C 540.894531 543.941406 515.496094 483.640625 466.371094 450.777344 C 453.480469 442.15625 439.660156 435.449219 424.910156 430.65625 C 424.886719 430.652344 397.058594 421.609375 397.058594 421.609375 L 445.097656 486.351562 C 445.503906 486.894531 445.824219 487.480469 446.066406 488.113281 C 446.304688 488.746094 446.453125 489.398438 446.511719 490.070312 C 446.570312 490.746094 446.539062 491.414062 446.410156 492.078125 C 446.28125 492.742188 446.066406 493.375 445.761719 493.980469 C 445.460938 494.585938 445.078125 495.136719 444.621094 495.632812 C 444.167969 496.132812 443.648438 496.558594 443.074219 496.914062 C 442.5 497.269531 441.886719 497.539062 441.234375 497.722656 C 440.585938 497.910156 439.921875 498 439.246094 498 Z M 352.910156 421.617188 L 325.082031 430.660156 C 310.324219 435.453125 296.5 442.160156 283.601562 450.78125 C 234.472656 483.648438 209.078125 543.945312 218.902344 604.375 L 220.300781 613.003906 L 223.550781 612.691406 C 300.710938 605.242188 361.519531 542.847656 364.984375 467.554688 C 365.109375 464.980469 365.164062 462.386719 365.164062 459.792969 L 365.164062 429.601562 L 316.597656 495.054688 C 316.308594 495.4375 315.988281 495.785156 315.632812 496.101562 C 315.277344 496.421875 314.894531 496.699219 314.480469 496.945312 C 314.070312 497.1875 313.640625 497.386719 313.191406 497.542969 C 312.742188 497.703125 312.28125 497.816406 311.808594 497.882812 C 311.335938 497.953125 310.863281 497.972656 310.386719 497.949219 C 309.910156 497.921875 309.441406 497.851562 308.976562 497.734375 C 308.515625 497.617188 308.066406 497.457031 307.636719 497.253906 C 307.207031 497.046875 306.800781 496.804688 306.417969 496.519531 C 306.035156 496.234375 305.683594 495.917969 305.359375 495.5625 C 305.039062 495.210938 304.757812 494.828125 304.511719 494.421875 C 304.265625 494.011719 304.0625 493.582031 303.898438 493.132812 C 303.738281 492.683594 303.621094 492.226562 303.550781 491.753906 C 303.476562 491.28125 303.453125 490.808594 303.472656 490.332031 C 303.496094 489.855469 303.5625 489.386719 303.675781 488.921875 C 303.789062 488.457031 303.945312 488.011719 304.148438 487.578125 C 304.347656 487.144531 304.589844 486.738281 304.871094 486.351562 Z M 288.609375 418.828125 C 298.953125 417.492188 309.085938 415.207031 319.003906 411.976562 L 327.363281 409.265625 L 347.953125 402.574219 L 268.355469 375.296875 C 267.902344 375.140625 267.46875 374.941406 267.054688 374.703125 C 266.640625 374.460938 266.253906 374.183594 265.894531 373.863281 C 265.535156 373.546875 265.210938 373.199219 264.917969 372.816406 C 264.628906 372.4375 264.378906 372.03125 264.167969 371.601562 C 263.957031 371.167969 263.789062 370.722656 263.667969 370.257812 C 263.546875 369.796875 263.46875 369.324219 263.4375 368.847656 C 263.410156 368.371094 263.425781 367.894531 263.488281 367.417969 C 263.554688 366.941406 263.664062 366.480469 263.820312 366.027344 C 263.972656 365.574219 264.171875 365.136719 264.414062 364.722656 C 264.652344 364.308594 264.933594 363.921875 265.25 363.5625 C 265.566406 363.203125 265.914062 362.878906 266.296875 362.589844 C 266.675781 362.296875 267.082031 362.046875 267.511719 361.835938 C 267.941406 361.625 268.390625 361.457031 268.851562 361.335938 C 269.316406 361.210938 269.785156 361.136719 270.265625 361.105469 C 270.742188 361.074219 271.21875 361.089844 271.695312 361.152344 C 272.167969 361.21875 272.632812 361.328125 273.085938 361.480469 L 351.367188 388.304688 L 334.320312 364.84375 C 329.835938 358.671875 324.953125 352.835938 319.675781 347.328125 C 314.394531 341.820312 308.765625 336.699219 302.785156 331.960938 C 296.804688 327.222656 290.535156 322.910156 283.964844 319.027344 C 277.398438 315.144531 270.601562 311.722656 263.566406 308.765625 C 226.769531 293.289062 183.4375 293.867188 144.65625 310.34375 L 124.722656 318.820312 L 130.507812 330.847656 C 159.894531 391.878906 223.472656 427.261719 288.613281 418.824219 Z M 350.210938 353.300781 L 367.6875 377.363281 L 367.6875 291.339844 C 367.6875 290.859375 367.734375 290.386719 367.828125 289.917969 C 367.921875 289.445312 368.058594 288.992188 368.242188 288.546875 C 368.425781 288.105469 368.652344 287.683594 368.917969 287.285156 C 369.183594 286.886719 369.488281 286.519531 369.824219 286.179688 C 370.164062 285.839844 370.53125 285.539062 370.929688 285.273438 C 371.328125 285.007812 371.75 284.78125 372.191406 284.597656 C 372.636719 284.414062 373.089844 284.277344 373.5625 284.183594 C 374.03125 284.089844 374.507812 284.042969 374.984375 284.042969 C 375.464844 284.042969 375.9375 284.089844 376.410156 284.183594 C 376.878906 284.277344 377.335938 284.414062 377.777344 284.597656 C 378.21875 284.78125 378.640625 285.007812 379.039062 285.273438 C 379.4375 285.539062 379.804688 285.839844 380.144531 286.179688 C 380.484375 286.519531 380.785156 286.886719 381.050781 287.285156 C 381.320312 287.683594 381.542969 288.105469 381.726562 288.546875 C 381.910156 288.992188 382.046875 289.445312 382.140625 289.917969 C 382.234375 290.386719 382.28125 290.859375 382.28125 291.339844 L 382.28125 377.367188 L 399.761719 353.308594 C 407.304688 342.902344 413.578125 331.773438 418.582031 319.933594 C 423.582031 308.089844 427.183594 295.835938 429.386719 283.167969 C 437.164062 238.09375 422.753906 190.023438 390.84375 154.597656 L 374.988281 136.976562 L 359.132812 154.59375 C 327.222656 190.023438 312.8125 238.09375 320.589844 283.167969 C 322.789062 295.832031 326.390625 308.085938 331.390625 319.925781 C 336.394531 331.769531 342.664062 342.890625 350.210938 353.300781 Z M 350.210938 353.300781 " fill-opacity="1" fill-rule="nonzero"/></g></svg>